<svg xmlns="http://www.w3.org/2000/svg" viewBox="0 0 48 48" width="48" height="48">
  <defs>
    <filter id="glow" x="-40%" y="-40%" width="180%" height="180%">
      <feGaussianBlur stdDeviation="1.5" result="coloredBlur"/>
      <feMerge>
        <feMergeNode in="coloredBlur"/>
        <feMergeNode in="SourceGraphic"/>
      </feMerge>
    </filter>
  </defs>
  <circle cx="24" cy="24" r="6" fill="none" stroke="#f2e9e1" stroke-width="2" filter="url(#glow)"/><path d="M24 6l2 4 4.3-.8.8 4.3 4-2-1 4.2 3.1 3.1 4.2-1-2 4.3 4.3.8-.8 4.3 4-2-1 4.2-3.1 3.1-4.2-1-2 4.3-4.3-.8-.8-4.3-4 2 1-4.2-3.1-3.1-4.2 1 2-4.3-4.3-.8.8-4.3-4 2 1-4.2 3.1-3.1 4.2 1 2-4.3z" fill="none" stroke="#f2e9e1" stroke-width="2" stroke-linejoin="round" filter="url(#glow)"/>
</svg>