<svg xmlns="http://www.w3.org/2000/svg" viewBox="0 0 48 48" width="48" height="48">
  <defs>
    <filter id="glow" x="-40%" y="-40%" width="180%" height="180%">
      <feGaussianBlur stdDeviation="1.5" result="coloredBlur"/>
      <feMerge>
        <feMergeNode in="coloredBlur"/>
        <feMergeNode in="SourceGraphic"/>
      </feMerge>
    </filter>
  </defs>
  <path d="M33.5 6.5a9.5 9.5 0 0 0-9.1 12.2L9.2 33.9a4 4 0 0 0 0 5.6l-.7-.7a4 4 0 0 0 5.6 0l15.2-15.2a9.5 9.5 0 0 0 12.2-9.1 9.4 9.4 0 0 0-1.1-4.4l-5.6 5.6-3.9-1.05-1.05-3.9 5.6-5.6a9.4 9.4 0 0 0-4.4-1.25z"
        fill="none" stroke="#e09924" stroke-width="2.5" stroke-linejoin="round" stroke-linecap="round" filter="url(#glow)"/>
  <circle cx="11.8" cy="36.2" r="1.6" fill="#e09924" filter="url(#glow)"/>
</svg>
